<mxfile host="app.diagrams.net" modified="2024-06-15T12:05:26.209Z" agent="Mozilla/5.0 (Macintosh; Intel Mac OS X 10_15_7) AppleWebKit/537.36 (KHTML, like Gecko) Chrome/122.0.0.0 YaBrowser/24.4.0.0 Safari/537.36" version="24.5.4" etag="kkkttYGcgCSM0sRkDoGA" type="github">
  <diagram name="Страница — 1" id="nnK-8w7yZOqbWmLZs_uq">
    <mxGraphModel>
      <root>
        <mxCell id="0" />
        <mxCell id="1" parent="0" />
      </root>
    </mxGraphModel>
  </diagram>
</mxfile>
